<mxfile host="Electron" modified="2025-02-23T15:18:03.868Z" agent="Mozilla/5.0 (Windows NT 10.0; Win64; x64) AppleWebKit/537.36 (KHTML, like Gecko) draw.io/22.1.16 Chrome/120.0.6099.109 Electron/28.1.0 Safari/537.36" etag="QHxV9bu7tqTzTZfH01xp" version="22.1.16" type="device" pages="2">
  <diagram name="mapper接口注入流程" id="N_XEHunmxFOdw_qLV6t6">
    <mxGraphModel dx="1834" dy="844" grid="0" gridSize="10" guides="1" tooltips="1" connect="1" arrows="1" fold="1" page="0" pageScale="1" pageWidth="827" pageHeight="1169" math="0" shadow="0">
      <root>
        <mxCell id="0" />
        <mxCell id="1" parent="0" />
        <mxCell id="YFqb7maSohgPG5odK4tr-4" style="edgeStyle=orthogonalEdgeStyle;rounded=0;orthogonalLoop=1;jettySize=auto;html=1;exitX=0.5;exitY=1;exitDx=0;exitDy=0;entryX=0.5;entryY=0;entryDx=0;entryDy=0;" parent="1" source="YFqb7maSohgPG5odK4tr-1" target="YFqb7maSohgPG5odK4tr-3" edge="1">
          <mxGeometry relative="1" as="geometry" />
        </mxCell>
        <mxCell id="YFqb7maSohgPG5odK4tr-5" value="持有引用" style="edgeLabel;html=1;align=center;verticalAlign=middle;resizable=0;points=[];" parent="YFqb7maSohgPG5odK4tr-4" vertex="1" connectable="0">
          <mxGeometry x="-0.1163" y="-5" relative="1" as="geometry">
            <mxPoint x="5" y="-3" as="offset" />
          </mxGeometry>
        </mxCell>
        <mxCell id="YFqb7maSohgPG5odK4tr-1" value="SqlSessionFactory" style="html=1;whiteSpace=wrap;fillColor=#dae8fc;strokeColor=#6c8ebf;fontStyle=1" parent="1" vertex="1">
          <mxGeometry x="235" y="670.5" width="110" height="39" as="geometry" />
        </mxCell>
        <mxCell id="YFqb7maSohgPG5odK4tr-51" style="edgeStyle=orthogonalEdgeStyle;rounded=0;orthogonalLoop=1;jettySize=auto;html=1;exitX=0.5;exitY=1;exitDx=0;exitDy=0;" parent="1" source="YFqb7maSohgPG5odK4tr-2" target="YFqb7maSohgPG5odK4tr-1" edge="1">
          <mxGeometry relative="1" as="geometry" />
        </mxCell>
        <mxCell id="YFqb7maSohgPG5odK4tr-52" value="装配" style="edgeLabel;html=1;align=center;verticalAlign=middle;resizable=0;points=[];" parent="YFqb7maSohgPG5odK4tr-51" vertex="1" connectable="0">
          <mxGeometry x="-0.2513" relative="1" as="geometry">
            <mxPoint as="offset" />
          </mxGeometry>
        </mxCell>
        <mxCell id="YFqb7maSohgPG5odK4tr-2" value="DynamicDataSourceAutoConfig" style="html=1;whiteSpace=wrap;fillColor=#dae8fc;strokeColor=#6c8ebf;" parent="1" vertex="1">
          <mxGeometry x="187" y="529" width="206" height="48" as="geometry" />
        </mxCell>
        <mxCell id="YFqb7maSohgPG5odK4tr-3" value="&lt;b&gt;Configuration&lt;/b&gt;" style="html=1;whiteSpace=wrap;fillColor=#ffe6cc;strokeColor=#d79b00;" parent="1" vertex="1">
          <mxGeometry x="235" y="798" width="110" height="39" as="geometry" />
        </mxCell>
        <mxCell id="YFqb7maSohgPG5odK4tr-8" value="&lt;span style=&quot;color: rgb(0, 0, 0); font-family: Helvetica; font-size: 15px; font-style: normal; font-variant-ligatures: normal; font-variant-caps: normal; font-weight: 400; letter-spacing: normal; orphans: 2; text-align: left; text-indent: 0px; text-transform: none; widows: 2; word-spacing: 0px; -webkit-text-stroke-width: 0px; background-color: rgb(251, 251, 251); text-decoration-thickness: initial; text-decoration-style: initial; text-decoration-color: initial; float: none; display: inline !important;&quot;&gt;通过解析xml文件来创建该对象，包括mybtais.xml、mapper接口的xml文件，&lt;br&gt;其中mapper接口的xml文件中的sql和相关信息都会被封装成一个个的MappedStatement对象存进Configuration对象的一个Map中&lt;/span&gt;" style="text;whiteSpace=wrap;html=1;rounded=0;" parent="1" vertex="1">
          <mxGeometry x="-280" y="794" width="510" height="74" as="geometry" />
        </mxCell>
        <mxCell id="YFqb7maSohgPG5odK4tr-36" style="edgeStyle=orthogonalEdgeStyle;rounded=0;orthogonalLoop=1;jettySize=auto;html=1;exitX=0.5;exitY=1;exitDx=0;exitDy=0;" parent="1" source="YFqb7maSohgPG5odK4tr-17" target="YFqb7maSohgPG5odK4tr-22" edge="1">
          <mxGeometry relative="1" as="geometry" />
        </mxCell>
        <mxCell id="YFqb7maSohgPG5odK4tr-38" value="&lt;font style=&quot;font-size: 12px;&quot;&gt;当前bean是工厂bean对象，尝试从缓存中获取真实bean&lt;/font&gt;" style="edgeLabel;html=1;align=center;verticalAlign=middle;resizable=0;points=[];" parent="YFqb7maSohgPG5odK4tr-36" vertex="1" connectable="0">
          <mxGeometry x="-0.0556" y="-1" relative="1" as="geometry">
            <mxPoint x="5" y="-3" as="offset" />
          </mxGeometry>
        </mxCell>
        <mxCell id="YFqb7maSohgPG5odK4tr-17" value="MapperFactoryBean" style="html=1;whiteSpace=wrap;fillColor=#ffe6cc;strokeColor=#d79b00;fontStyle=1" parent="1" vertex="1">
          <mxGeometry x="516" y="290" width="121" height="40" as="geometry" />
        </mxCell>
        <mxCell id="YFqb7maSohgPG5odK4tr-20" value="mapper接口启动时会被扫描，以&lt;b&gt;MapperFactoryBean&lt;/b&gt;形式放入一级缓存，它实现了&lt;b&gt;FactoryBean&lt;/b&gt;接口" style="shape=document;whiteSpace=wrap;html=1;boundedLbl=1;fillColor=#f5f5f5;fontColor=#333333;strokeColor=#666666;" parent="1" vertex="1">
          <mxGeometry x="637" y="287" width="192" height="58" as="geometry" />
        </mxCell>
        <mxCell id="YFqb7maSohgPG5odK4tr-40" style="edgeStyle=orthogonalEdgeStyle;rounded=0;orthogonalLoop=1;jettySize=auto;html=1;exitX=0.5;exitY=1;exitDx=0;exitDy=0;entryX=0.5;entryY=0;entryDx=0;entryDy=0;" parent="1" source="YFqb7maSohgPG5odK4tr-22" target="YFqb7maSohgPG5odK4tr-39" edge="1">
          <mxGeometry relative="1" as="geometry" />
        </mxCell>
        <mxCell id="YFqb7maSohgPG5odK4tr-41" value="&lt;font style=&quot;font-size: 12px;&quot;&gt;缓存中获取不到，调用MapperFactoryBean的getObject方法&lt;/font&gt;" style="edgeLabel;html=1;align=center;verticalAlign=middle;resizable=0;points=[];" parent="YFqb7maSohgPG5odK4tr-40" vertex="1" connectable="0">
          <mxGeometry x="-0.1387" y="-1" relative="1" as="geometry">
            <mxPoint x="5" y="1" as="offset" />
          </mxGeometry>
        </mxCell>
        <mxCell id="YFqb7maSohgPG5odK4tr-22" value="FactoryBeanRegistrySupport" style="html=1;whiteSpace=wrap;fillColor=#ffe6cc;strokeColor=#d79b00;fontStyle=1" parent="1" vertex="1">
          <mxGeometry x="491" y="474" width="171" height="44" as="geometry" />
        </mxCell>
        <mxCell id="YFqb7maSohgPG5odK4tr-37" value="持有工厂bean对象的真实对象，保存在&lt;b&gt;ConcurrentHashMap&lt;/b&gt;结构中" style="shape=document;whiteSpace=wrap;html=1;boundedLbl=1;fillColor=#f5f5f5;fontColor=#333333;strokeColor=#666666;" parent="1" vertex="1">
          <mxGeometry x="662" y="467" width="201" height="67" as="geometry" />
        </mxCell>
        <mxCell id="YFqb7maSohgPG5odK4tr-44" style="edgeStyle=orthogonalEdgeStyle;rounded=0;orthogonalLoop=1;jettySize=auto;html=1;exitX=0;exitY=0.5;exitDx=0;exitDy=0;entryX=1;entryY=0.5;entryDx=0;entryDy=0;" parent="1" source="YFqb7maSohgPG5odK4tr-39" target="YFqb7maSohgPG5odK4tr-1" edge="1">
          <mxGeometry relative="1" as="geometry" />
        </mxCell>
        <mxCell id="YFqb7maSohgPG5odK4tr-45" value="持有引用" style="edgeLabel;html=1;align=center;verticalAlign=middle;resizable=0;points=[];" parent="YFqb7maSohgPG5odK4tr-44" vertex="1" connectable="0">
          <mxGeometry x="0.0822" y="1" relative="1" as="geometry">
            <mxPoint as="offset" />
          </mxGeometry>
        </mxCell>
        <mxCell id="YFqb7maSohgPG5odK4tr-39" value="SqlSessionTemplate&lt;span style=&quot;color: rgb(171, 178, 191); font-family: &amp;quot;Source Code Pro&amp;quot;, &amp;quot;DejaVu Sans Mono&amp;quot;, &amp;quot;Ubuntu Mono&amp;quot;, &amp;quot;Anonymous Pro&amp;quot;, &amp;quot;Droid Sans Mono&amp;quot;, Menlo, Monaco, Consolas, Inconsolata, Courier, monospace, &amp;quot;PingFang SC&amp;quot;, &amp;quot;Microsoft YaHei&amp;quot;, sans-serif; font-size: 14px; font-variant-ligatures: no-common-ligatures; font-weight: 400; text-align: start; background-color: rgb(40, 44, 52);&quot;&gt; &lt;/span&gt;" style="html=1;whiteSpace=wrap;fillColor=#ffe6cc;strokeColor=#d79b00;fontStyle=1" parent="1" vertex="1">
          <mxGeometry x="491" y="668" width="171" height="44" as="geometry" />
        </mxCell>
        <mxCell id="YFqb7maSohgPG5odK4tr-43" value="实现了&lt;b&gt;SqlSession&lt;/b&gt;接口，代替&lt;b&gt;DefaultSqlSession&lt;/b&gt;来处理CRUD" style="shape=document;whiteSpace=wrap;html=1;boundedLbl=1;fillColor=#f5f5f5;fontColor=#333333;strokeColor=#666666;" parent="1" vertex="1">
          <mxGeometry x="659" y="666" width="192" height="58" as="geometry" />
        </mxCell>
        <mxCell id="YFqb7maSohgPG5odK4tr-47" value="代理对象&lt;span style=&quot;color: rgb(171, 178, 191); font-family: &amp;quot;Source Code Pro&amp;quot;, &amp;quot;DejaVu Sans Mono&amp;quot;, &amp;quot;Ubuntu Mono&amp;quot;, &amp;quot;Anonymous Pro&amp;quot;, &amp;quot;Droid Sans Mono&amp;quot;, Menlo, Monaco, Consolas, Inconsolata, Courier, monospace, &amp;quot;PingFang SC&amp;quot;, &amp;quot;Microsoft YaHei&amp;quot;, sans-serif; font-size: 14px; font-variant-ligatures: no-common-ligatures; font-weight: 400; text-align: start; background-color: rgb(40, 44, 52);&quot;&gt;&lt;/span&gt;" style="html=1;whiteSpace=wrap;fillColor=#dae8fc;strokeColor=#6c8ebf;fontStyle=1" parent="1" vertex="1">
          <mxGeometry x="498" y="845" width="171" height="44" as="geometry" />
        </mxCell>
        <mxCell id="YFqb7maSohgPG5odK4tr-48" style="edgeStyle=orthogonalEdgeStyle;rounded=0;orthogonalLoop=1;jettySize=auto;html=1;exitX=0.5;exitY=1;exitDx=0;exitDy=0;entryX=0.462;entryY=0.045;entryDx=0;entryDy=0;entryPerimeter=0;" parent="1" source="YFqb7maSohgPG5odK4tr-39" target="YFqb7maSohgPG5odK4tr-47" edge="1">
          <mxGeometry relative="1" as="geometry" />
        </mxCell>
        <mxCell id="YFqb7maSohgPG5odK4tr-49" value="调用getMapper获取代理对象" style="edgeLabel;html=1;align=center;verticalAlign=middle;resizable=0;points=[];" parent="YFqb7maSohgPG5odK4tr-48" vertex="1" connectable="0">
          <mxGeometry x="-0.1027" y="-2" relative="1" as="geometry">
            <mxPoint as="offset" />
          </mxGeometry>
        </mxCell>
        <mxCell id="YFqb7maSohgPG5odK4tr-50" value="代理了mapper接口的对象，最终方法的逻辑会经过&lt;b&gt;MapperProxy&lt;/b&gt;，它实现了&lt;b&gt;InvocationHandler&lt;/b&gt;接口" style="shape=document;whiteSpace=wrap;html=1;boundedLbl=1;fillColor=#f5f5f5;fontColor=#333333;strokeColor=#666666;" parent="1" vertex="1">
          <mxGeometry x="669" y="841" width="204" height="70" as="geometry" />
        </mxCell>
        <mxCell id="YFqb7maSohgPG5odK4tr-65" style="edgeStyle=orthogonalEdgeStyle;rounded=0;orthogonalLoop=1;jettySize=auto;html=1;exitX=0.5;exitY=0.5;exitDx=0;exitDy=0;exitPerimeter=0;entryX=0;entryY=0.5;entryDx=0;entryDy=0;" parent="1" source="YFqb7maSohgPG5odK4tr-53" target="YFqb7maSohgPG5odK4tr-58" edge="1">
          <mxGeometry relative="1" as="geometry" />
        </mxCell>
        <mxCell id="YFqb7maSohgPG5odK4tr-53" value="Actor" style="shape=umlActor;verticalLabelPosition=bottom;verticalAlign=top;html=1;outlineConnect=0;" parent="1" vertex="1">
          <mxGeometry x="1" y="280" width="30" height="60" as="geometry" />
        </mxCell>
        <mxCell id="YFqb7maSohgPG5odK4tr-66" style="edgeStyle=orthogonalEdgeStyle;rounded=0;orthogonalLoop=1;jettySize=auto;html=1;exitX=1;exitY=0.5;exitDx=0;exitDy=0;" parent="1" source="YFqb7maSohgPG5odK4tr-58" target="YFqb7maSohgPG5odK4tr-17" edge="1">
          <mxGeometry relative="1" as="geometry" />
        </mxCell>
        <mxCell id="YFqb7maSohgPG5odK4tr-70" value="从一级缓存获取" style="edgeLabel;html=1;align=center;verticalAlign=middle;resizable=0;points=[];" parent="YFqb7maSohgPG5odK4tr-66" vertex="1" connectable="0">
          <mxGeometry x="-0.0172" y="-1" relative="1" as="geometry">
            <mxPoint x="2" y="-11" as="offset" />
          </mxGeometry>
        </mxCell>
        <mxCell id="YFqb7maSohgPG5odK4tr-58" value="service类注入mapper接口" style="rounded=0;whiteSpace=wrap;html=1;fillColor=#dae8fc;strokeColor=#6c8ebf;" parent="1" vertex="1">
          <mxGeometry x="171" y="286.5" width="113" height="47" as="geometry" />
        </mxCell>
      </root>
    </mxGraphModel>
  </diagram>
  <diagram id="o6joyRKsDBO3y0VupFN2" name="动态数据源切换执行流程">
    <mxGraphModel dx="2234" dy="844" grid="0" gridSize="10" guides="1" tooltips="1" connect="1" arrows="1" fold="1" page="0" pageScale="1" pageWidth="827" pageHeight="1169" math="0" shadow="0">
      <root>
        <mxCell id="0" />
        <mxCell id="1" parent="0" />
        <mxCell id="tpEKr861TFxqWMD5nZ4B-1" style="edgeStyle=orthogonalEdgeStyle;rounded=0;orthogonalLoop=1;jettySize=auto;html=1;exitX=0.5;exitY=1;exitDx=0;exitDy=0;entryX=0.5;entryY=0;entryDx=0;entryDy=0;" parent="1" source="tpEKr861TFxqWMD5nZ4B-3" target="tpEKr861TFxqWMD5nZ4B-7" edge="1">
          <mxGeometry relative="1" as="geometry" />
        </mxCell>
        <mxCell id="tpEKr861TFxqWMD5nZ4B-2" value="持有引用" style="edgeLabel;html=1;align=center;verticalAlign=middle;resizable=0;points=[];" parent="tpEKr861TFxqWMD5nZ4B-1" vertex="1" connectable="0">
          <mxGeometry x="-0.1163" y="-5" relative="1" as="geometry">
            <mxPoint x="5" y="-3" as="offset" />
          </mxGeometry>
        </mxCell>
        <mxCell id="tpEKr861TFxqWMD5nZ4B-3" value="SqlSessionFactory" style="html=1;whiteSpace=wrap;fillColor=#dae8fc;strokeColor=#6c8ebf;fontStyle=1" parent="1" vertex="1">
          <mxGeometry x="1387" y="334" width="110" height="39" as="geometry" />
        </mxCell>
        <mxCell id="tpEKr861TFxqWMD5nZ4B-4" style="edgeStyle=orthogonalEdgeStyle;rounded=0;orthogonalLoop=1;jettySize=auto;html=1;exitX=0.5;exitY=1;exitDx=0;exitDy=0;" parent="1" source="tpEKr861TFxqWMD5nZ4B-6" target="tpEKr861TFxqWMD5nZ4B-3" edge="1">
          <mxGeometry relative="1" as="geometry" />
        </mxCell>
        <mxCell id="G2Klg-NVRHvDp2kdG9Jy-56" value="装配" style="edgeLabel;html=1;align=center;verticalAlign=middle;resizable=0;points=[];" parent="tpEKr861TFxqWMD5nZ4B-4" vertex="1" connectable="0">
          <mxGeometry x="-0.3542" relative="1" as="geometry">
            <mxPoint as="offset" />
          </mxGeometry>
        </mxCell>
        <mxCell id="G2Klg-NVRHvDp2kdG9Jy-57" style="edgeStyle=orthogonalEdgeStyle;rounded=0;orthogonalLoop=1;jettySize=auto;html=1;exitX=1;exitY=0.5;exitDx=0;exitDy=0;" parent="1" source="tpEKr861TFxqWMD5nZ4B-6" edge="1">
          <mxGeometry relative="1" as="geometry">
            <mxPoint x="1446" y="555" as="targetPoint" />
            <Array as="points">
              <mxPoint x="1565" y="214" />
              <mxPoint x="1565" y="526" />
              <mxPoint x="1447" y="526" />
            </Array>
          </mxGeometry>
        </mxCell>
        <mxCell id="G2Klg-NVRHvDp2kdG9Jy-58" value="装配" style="edgeLabel;html=1;align=center;verticalAlign=middle;resizable=0;points=[];" parent="G2Klg-NVRHvDp2kdG9Jy-57" vertex="1" connectable="0">
          <mxGeometry x="-0.1312" y="-4" relative="1" as="geometry">
            <mxPoint x="6" y="-1" as="offset" />
          </mxGeometry>
        </mxCell>
        <mxCell id="G2Klg-NVRHvDp2kdG9Jy-85" style="edgeStyle=orthogonalEdgeStyle;rounded=0;orthogonalLoop=1;jettySize=auto;html=1;exitX=0.5;exitY=0;exitDx=0;exitDy=0;entryX=0.5;entryY=0;entryDx=0;entryDy=0;" parent="1" source="tpEKr861TFxqWMD5nZ4B-6" target="G2Klg-NVRHvDp2kdG9Jy-84" edge="1">
          <mxGeometry relative="1" as="geometry" />
        </mxCell>
        <mxCell id="G2Klg-NVRHvDp2kdG9Jy-86" value="装配" style="edgeLabel;html=1;align=center;verticalAlign=middle;resizable=0;points=[];" parent="G2Klg-NVRHvDp2kdG9Jy-85" vertex="1" connectable="0">
          <mxGeometry x="-0.0514" y="1" relative="1" as="geometry">
            <mxPoint y="-8" as="offset" />
          </mxGeometry>
        </mxCell>
        <mxCell id="tpEKr861TFxqWMD5nZ4B-6" value="DynamicDataSourceAutoConfig" style="html=1;whiteSpace=wrap;fillColor=#dae8fc;strokeColor=#6c8ebf;" parent="1" vertex="1">
          <mxGeometry x="1339" y="190" width="206" height="48" as="geometry" />
        </mxCell>
        <mxCell id="tpEKr861TFxqWMD5nZ4B-7" value="&lt;b&gt;Configuration&lt;/b&gt;" style="html=1;whiteSpace=wrap;fillColor=#ffe6cc;strokeColor=#d79b00;" parent="1" vertex="1">
          <mxGeometry x="1389" y="452" width="110" height="39" as="geometry" />
        </mxCell>
        <mxCell id="G2Klg-NVRHvDp2kdG9Jy-46" style="edgeStyle=orthogonalEdgeStyle;rounded=0;orthogonalLoop=1;jettySize=auto;html=1;exitX=0.5;exitY=1;exitDx=0;exitDy=0;" parent="1" source="tpEKr861TFxqWMD5nZ4B-18" target="G2Klg-NVRHvDp2kdG9Jy-42" edge="1">
          <mxGeometry relative="1" as="geometry" />
        </mxCell>
        <mxCell id="G2Klg-NVRHvDp2kdG9Jy-87" style="edgeStyle=orthogonalEdgeStyle;rounded=0;orthogonalLoop=1;jettySize=auto;html=1;exitX=1;exitY=0.5;exitDx=0;exitDy=0;entryX=0;entryY=0.5;entryDx=0;entryDy=0;" parent="1" source="tpEKr861TFxqWMD5nZ4B-18" target="tpEKr861TFxqWMD5nZ4B-3" edge="1">
          <mxGeometry relative="1" as="geometry" />
        </mxCell>
        <mxCell id="G2Klg-NVRHvDp2kdG9Jy-88" value="持有引用" style="edgeLabel;html=1;align=center;verticalAlign=middle;resizable=0;points=[];" parent="G2Klg-NVRHvDp2kdG9Jy-87" vertex="1" connectable="0">
          <mxGeometry x="-0.0778" relative="1" as="geometry">
            <mxPoint as="offset" />
          </mxGeometry>
        </mxCell>
        <mxCell id="tpEKr861TFxqWMD5nZ4B-18" value="SqlSessionTemplate&lt;span style=&quot;color: rgb(171, 178, 191); font-family: &amp;quot;Source Code Pro&amp;quot;, &amp;quot;DejaVu Sans Mono&amp;quot;, &amp;quot;Ubuntu Mono&amp;quot;, &amp;quot;Anonymous Pro&amp;quot;, &amp;quot;Droid Sans Mono&amp;quot;, Menlo, Monaco, Consolas, Inconsolata, Courier, monospace, &amp;quot;PingFang SC&amp;quot;, &amp;quot;Microsoft YaHei&amp;quot;, sans-serif; font-size: 14px; font-variant-ligatures: no-common-ligatures; font-weight: 400; text-align: start; background-color: rgb(40, 44, 52);&quot;&gt; &lt;/span&gt;" style="html=1;whiteSpace=wrap;fillColor=#ffe6cc;strokeColor=#d79b00;fontStyle=1" parent="1" vertex="1">
          <mxGeometry x="995" y="192.5" width="171" height="44" as="geometry" />
        </mxCell>
        <mxCell id="G2Klg-NVRHvDp2kdG9Jy-15" style="edgeStyle=orthogonalEdgeStyle;rounded=0;orthogonalLoop=1;jettySize=auto;html=1;exitX=1;exitY=0.5;exitDx=0;exitDy=0;entryX=0;entryY=0.5;entryDx=0;entryDy=0;" parent="1" source="tpEKr861TFxqWMD5nZ4B-20" target="G2Klg-NVRHvDp2kdG9Jy-2" edge="1">
          <mxGeometry relative="1" as="geometry" />
        </mxCell>
        <mxCell id="tpEKr861TFxqWMD5nZ4B-20" value="代理对象&lt;span style=&quot;color: rgb(171, 178, 191); font-family: &amp;quot;Source Code Pro&amp;quot;, &amp;quot;DejaVu Sans Mono&amp;quot;, &amp;quot;Ubuntu Mono&amp;quot;, &amp;quot;Anonymous Pro&amp;quot;, &amp;quot;Droid Sans Mono&amp;quot;, Menlo, Monaco, Consolas, Inconsolata, Courier, monospace, &amp;quot;PingFang SC&amp;quot;, &amp;quot;Microsoft YaHei&amp;quot;, sans-serif; font-size: 14px; font-variant-ligatures: no-common-ligatures; font-weight: 400; text-align: start; background-color: rgb(40, 44, 52);&quot;&gt;&lt;/span&gt;" style="html=1;whiteSpace=wrap;fillColor=#ffe6cc;strokeColor=#d79b00;fontStyle=1" parent="1" vertex="1">
          <mxGeometry x="405" y="192.5" width="171" height="44" as="geometry" />
        </mxCell>
        <mxCell id="tpEKr861TFxqWMD5nZ4B-24" style="edgeStyle=orthogonalEdgeStyle;rounded=0;orthogonalLoop=1;jettySize=auto;html=1;exitX=0.5;exitY=0.5;exitDx=0;exitDy=0;exitPerimeter=0;entryX=0;entryY=0.5;entryDx=0;entryDy=0;" parent="1" target="tpEKr861TFxqWMD5nZ4B-28" edge="1">
          <mxGeometry relative="1" as="geometry">
            <mxPoint x="-368" y="214.5" as="sourcePoint" />
          </mxGeometry>
        </mxCell>
        <mxCell id="tpEKr861TFxqWMD5nZ4B-25" value="Actor" style="shape=umlActor;verticalLabelPosition=bottom;verticalAlign=top;html=1;outlineConnect=0;" parent="1" vertex="1">
          <mxGeometry x="-405" y="182" width="30" height="60" as="geometry" />
        </mxCell>
        <mxCell id="G2Klg-NVRHvDp2kdG9Jy-94" style="edgeStyle=orthogonalEdgeStyle;rounded=0;orthogonalLoop=1;jettySize=auto;html=1;" parent="1" source="tpEKr861TFxqWMD5nZ4B-28" target="G2Klg-NVRHvDp2kdG9Jy-89" edge="1">
          <mxGeometry relative="1" as="geometry" />
        </mxCell>
        <mxCell id="G2Klg-NVRHvDp2kdG9Jy-97" style="edgeStyle=orthogonalEdgeStyle;rounded=0;orthogonalLoop=1;jettySize=auto;html=1;" parent="1" source="tpEKr861TFxqWMD5nZ4B-28" target="G2Klg-NVRHvDp2kdG9Jy-92" edge="1">
          <mxGeometry relative="1" as="geometry" />
        </mxCell>
        <mxCell id="tpEKr861TFxqWMD5nZ4B-28" value="执行标注数据源类型注解的方法" style="rounded=0;whiteSpace=wrap;html=1;fillColor=#dae8fc;strokeColor=#6c8ebf;" parent="1" vertex="1">
          <mxGeometry x="-213" y="191" width="207" height="47" as="geometry" />
        </mxCell>
        <mxCell id="G2Klg-NVRHvDp2kdG9Jy-16" style="edgeStyle=orthogonalEdgeStyle;rounded=0;orthogonalLoop=1;jettySize=auto;html=1;exitX=1;exitY=0.5;exitDx=0;exitDy=0;entryX=0;entryY=0.5;entryDx=0;entryDy=0;" parent="1" source="G2Klg-NVRHvDp2kdG9Jy-2" target="tpEKr861TFxqWMD5nZ4B-18" edge="1">
          <mxGeometry relative="1" as="geometry" />
        </mxCell>
        <mxCell id="G2Klg-NVRHvDp2kdG9Jy-2" value="MapperProxy&lt;span style=&quot;color: rgb(171, 178, 191); font-family: &amp;quot;Source Code Pro&amp;quot;, &amp;quot;DejaVu Sans Mono&amp;quot;, &amp;quot;Ubuntu Mono&amp;quot;, &amp;quot;Anonymous Pro&amp;quot;, &amp;quot;Droid Sans Mono&amp;quot;, Menlo, Monaco, Consolas, Inconsolata, Courier, monospace, &amp;quot;PingFang SC&amp;quot;, &amp;quot;Microsoft YaHei&amp;quot;, sans-serif; font-size: 14px; font-variant-ligatures: no-common-ligatures; font-weight: 400; text-align: start; background-color: rgb(40, 44, 52);&quot;&gt;&lt;/span&gt;" style="html=1;whiteSpace=wrap;fillColor=#ffe6cc;strokeColor=#d79b00;fontStyle=1" parent="1" vertex="1">
          <mxGeometry x="712" y="192.5" width="171" height="44" as="geometry" />
        </mxCell>
        <mxCell id="G2Klg-NVRHvDp2kdG9Jy-21" style="edgeStyle=orthogonalEdgeStyle;rounded=0;orthogonalLoop=1;jettySize=auto;html=1;exitX=0.5;exitY=1;exitDx=0;exitDy=0;entryX=0.5;entryY=0;entryDx=0;entryDy=0;" parent="1" source="G2Klg-NVRHvDp2kdG9Jy-6" target="G2Klg-NVRHvDp2kdG9Jy-7" edge="1">
          <mxGeometry relative="1" as="geometry" />
        </mxCell>
        <mxCell id="G2Klg-NVRHvDp2kdG9Jy-6" value="SqlSessionInterceptor&lt;span style=&quot;color: rgb(171, 178, 191); font-family: &amp;quot;Source Code Pro&amp;quot;, &amp;quot;DejaVu Sans Mono&amp;quot;, &amp;quot;Ubuntu Mono&amp;quot;, &amp;quot;Anonymous Pro&amp;quot;, &amp;quot;Droid Sans Mono&amp;quot;, Menlo, Monaco, Consolas, Inconsolata, Courier, monospace, &amp;quot;PingFang SC&amp;quot;, &amp;quot;Microsoft YaHei&amp;quot;, sans-serif; font-size: 14px; font-variant-ligatures: no-common-ligatures; font-weight: 400; text-align: start; background-color: rgb(40, 44, 52);&quot;&gt; &lt;/span&gt;" style="html=1;whiteSpace=wrap;fillColor=#ffe6cc;strokeColor=#d79b00;fontStyle=1" parent="1" vertex="1">
          <mxGeometry x="995" y="441" width="171" height="44" as="geometry" />
        </mxCell>
        <mxCell id="G2Klg-NVRHvDp2kdG9Jy-22" style="edgeStyle=orthogonalEdgeStyle;rounded=0;orthogonalLoop=1;jettySize=auto;html=1;exitX=0.5;exitY=1;exitDx=0;exitDy=0;" parent="1" source="G2Klg-NVRHvDp2kdG9Jy-7" target="G2Klg-NVRHvDp2kdG9Jy-9" edge="1">
          <mxGeometry relative="1" as="geometry" />
        </mxCell>
        <mxCell id="G2Klg-NVRHvDp2kdG9Jy-7" value="DefaultSqlSession&lt;span style=&quot;color: rgb(171, 178, 191); font-family: &amp;quot;Source Code Pro&amp;quot;, &amp;quot;DejaVu Sans Mono&amp;quot;, &amp;quot;Ubuntu Mono&amp;quot;, &amp;quot;Anonymous Pro&amp;quot;, &amp;quot;Droid Sans Mono&amp;quot;, Menlo, Monaco, Consolas, Inconsolata, Courier, monospace, &amp;quot;PingFang SC&amp;quot;, &amp;quot;Microsoft YaHei&amp;quot;, sans-serif; font-size: 14px; font-variant-ligatures: no-common-ligatures; font-weight: 400; text-align: start; background-color: rgb(40, 44, 52);&quot;&gt; &lt;/span&gt;" style="html=1;whiteSpace=wrap;fillColor=#ffe6cc;strokeColor=#d79b00;fontStyle=1" parent="1" vertex="1">
          <mxGeometry x="995" y="560" width="171" height="44" as="geometry" />
        </mxCell>
        <mxCell id="G2Klg-NVRHvDp2kdG9Jy-50" style="edgeStyle=orthogonalEdgeStyle;rounded=0;orthogonalLoop=1;jettySize=auto;html=1;exitX=1;exitY=0.5;exitDx=0;exitDy=0;entryX=0;entryY=0.5;entryDx=0;entryDy=0;" parent="1" source="G2Klg-NVRHvDp2kdG9Jy-9" target="G2Klg-NVRHvDp2kdG9Jy-47" edge="1">
          <mxGeometry relative="1" as="geometry" />
        </mxCell>
        <mxCell id="G2Klg-NVRHvDp2kdG9Jy-51" value="获取数据源流程" style="edgeLabel;html=1;align=center;verticalAlign=middle;resizable=0;points=[];" parent="G2Klg-NVRHvDp2kdG9Jy-50" vertex="1" connectable="0">
          <mxGeometry x="-0.162" y="2" relative="1" as="geometry">
            <mxPoint x="3" y="-6" as="offset" />
          </mxGeometry>
        </mxCell>
        <mxCell id="G2Klg-NVRHvDp2kdG9Jy-52" style="edgeStyle=orthogonalEdgeStyle;rounded=0;orthogonalLoop=1;jettySize=auto;html=1;exitX=0.5;exitY=1;exitDx=0;exitDy=0;entryX=0.5;entryY=0;entryDx=0;entryDy=0;" parent="1" source="G2Klg-NVRHvDp2kdG9Jy-9" target="G2Klg-NVRHvDp2kdG9Jy-10" edge="1">
          <mxGeometry relative="1" as="geometry" />
        </mxCell>
        <mxCell id="G2Klg-NVRHvDp2kdG9Jy-9" value="Executor" style="html=1;whiteSpace=wrap;fillColor=#ffe6cc;strokeColor=#d79b00;fontStyle=1" parent="1" vertex="1">
          <mxGeometry x="995" y="671" width="171" height="37" as="geometry" />
        </mxCell>
        <mxCell id="G2Klg-NVRHvDp2kdG9Jy-24" style="edgeStyle=orthogonalEdgeStyle;rounded=0;orthogonalLoop=1;jettySize=auto;html=1;exitX=0.25;exitY=1;exitDx=0;exitDy=0;entryX=0.5;entryY=0;entryDx=0;entryDy=0;" parent="1" source="G2Klg-NVRHvDp2kdG9Jy-10" target="G2Klg-NVRHvDp2kdG9Jy-11" edge="1">
          <mxGeometry relative="1" as="geometry" />
        </mxCell>
        <mxCell id="G2Klg-NVRHvDp2kdG9Jy-28" style="edgeStyle=orthogonalEdgeStyle;rounded=0;orthogonalLoop=1;jettySize=auto;html=1;exitX=0.75;exitY=1;exitDx=0;exitDy=0;" parent="1" source="G2Klg-NVRHvDp2kdG9Jy-10" target="G2Klg-NVRHvDp2kdG9Jy-14" edge="1">
          <mxGeometry relative="1" as="geometry">
            <Array as="points">
              <mxPoint x="1123" y="888" />
              <mxPoint x="1259" y="888" />
            </Array>
          </mxGeometry>
        </mxCell>
        <mxCell id="G2Klg-NVRHvDp2kdG9Jy-10" value="PreparedStatementHandler&amp;nbsp;" style="html=1;whiteSpace=wrap;fillColor=#ffe6cc;strokeColor=#d79b00;fontStyle=1" parent="1" vertex="1">
          <mxGeometry x="995" y="781" width="171" height="44" as="geometry" />
        </mxCell>
        <mxCell id="G2Klg-NVRHvDp2kdG9Jy-25" style="edgeStyle=orthogonalEdgeStyle;rounded=0;orthogonalLoop=1;jettySize=auto;html=1;exitX=0.5;exitY=1;exitDx=0;exitDy=0;entryX=0;entryY=0.5;entryDx=0;entryDy=0;" parent="1" source="G2Klg-NVRHvDp2kdG9Jy-11" target="G2Klg-NVRHvDp2kdG9Jy-13" edge="1">
          <mxGeometry relative="1" as="geometry" />
        </mxCell>
        <mxCell id="G2Klg-NVRHvDp2kdG9Jy-11" value="ParameterHandler" style="html=1;whiteSpace=wrap;fillColor=#ffe6cc;strokeColor=#d79b00;fontStyle=1" parent="1" vertex="1">
          <mxGeometry x="819" y="951.5" width="171" height="44" as="geometry" />
        </mxCell>
        <mxCell id="G2Klg-NVRHvDp2kdG9Jy-31" style="edgeStyle=orthogonalEdgeStyle;rounded=0;orthogonalLoop=1;jettySize=auto;html=1;exitX=0.5;exitY=1;exitDx=0;exitDy=0;entryX=0.5;entryY=0;entryDx=0;entryDy=0;" parent="1" source="G2Klg-NVRHvDp2kdG9Jy-13" target="G2Klg-NVRHvDp2kdG9Jy-30" edge="1">
          <mxGeometry relative="1" as="geometry" />
        </mxCell>
        <mxCell id="G2Klg-NVRHvDp2kdG9Jy-13" value="TypeHandler" style="html=1;whiteSpace=wrap;fillColor=#ffe6cc;strokeColor=#d79b00;fontStyle=1" parent="1" vertex="1">
          <mxGeometry x="990" y="1080.5" width="171" height="44" as="geometry" />
        </mxCell>
        <mxCell id="G2Klg-NVRHvDp2kdG9Jy-29" style="edgeStyle=orthogonalEdgeStyle;rounded=0;orthogonalLoop=1;jettySize=auto;html=1;exitX=0.5;exitY=1;exitDx=0;exitDy=0;entryX=1;entryY=0.5;entryDx=0;entryDy=0;" parent="1" source="G2Klg-NVRHvDp2kdG9Jy-14" target="G2Klg-NVRHvDp2kdG9Jy-13" edge="1">
          <mxGeometry relative="1" as="geometry">
            <Array as="points">
              <mxPoint x="1260" y="992.5" />
              <mxPoint x="1260" y="1102.5" />
            </Array>
          </mxGeometry>
        </mxCell>
        <mxCell id="G2Klg-NVRHvDp2kdG9Jy-14" value="ResultSetHandler" style="html=1;whiteSpace=wrap;fillColor=#ffe6cc;strokeColor=#d79b00;fontStyle=1" parent="1" vertex="1">
          <mxGeometry x="1168" y="948.5" width="171" height="44" as="geometry" />
        </mxCell>
        <mxCell id="G2Klg-NVRHvDp2kdG9Jy-30" value="PreparedStatement" style="html=1;whiteSpace=wrap;fillColor=#ffe6cc;strokeColor=#d79b00;fontStyle=1" parent="1" vertex="1">
          <mxGeometry x="990" y="1206.5" width="171" height="44" as="geometry" />
        </mxCell>
        <mxCell id="G2Klg-NVRHvDp2kdG9Jy-32" value="原生jdbc处理" style="shape=document;whiteSpace=wrap;html=1;boundedLbl=1;fillColor=#f5f5f5;fontColor=#333333;strokeColor=#666666;" parent="1" vertex="1">
          <mxGeometry x="1161" y="1203.5" width="117" height="57" as="geometry" />
        </mxCell>
        <mxCell id="G2Klg-NVRHvDp2kdG9Jy-33" value="数据库连接对象" style="shape=document;whiteSpace=wrap;html=1;boundedLbl=1;fillColor=#f5f5f5;fontColor=#333333;strokeColor=#666666;" parent="1" vertex="1">
          <mxGeometry x="2376" y="926" width="117" height="49" as="geometry" />
        </mxCell>
        <mxCell id="G2Klg-NVRHvDp2kdG9Jy-34" value="设置预编译参数时（sql语句的占位符替换）" style="shape=document;whiteSpace=wrap;html=1;boundedLbl=1;fillColor=#f5f5f5;fontColor=#333333;strokeColor=#666666;" parent="1" vertex="1">
          <mxGeometry x="700" y="951.5" width="121" height="62" as="geometry" />
        </mxCell>
        <mxCell id="G2Klg-NVRHvDp2kdG9Jy-35" value="数据库类型和Java类型之间的转换处理" style="shape=note2;boundedLbl=1;whiteSpace=wrap;html=1;size=10;verticalAlign=top;align=center;fillColor=#f5f5f5;fontColor=#333333;strokeColor=#666666;" parent="1" vertex="1">
          <mxGeometry x="1002" y="1031.5" width="152" height="49" as="geometry" />
        </mxCell>
        <mxCell id="G2Klg-NVRHvDp2kdG9Jy-38" value="相当于JDBC的预编译语句对象，它会处理sgl语句预编译，设置参数等相关工作" style="shape=document;whiteSpace=wrap;html=1;boundedLbl=1;fillColor=#f5f5f5;fontColor=#333333;strokeColor=#666666;" parent="1" vertex="1">
          <mxGeometry x="1164" y="770" width="147" height="73" as="geometry" />
        </mxCell>
        <mxCell id="G2Klg-NVRHvDp2kdG9Jy-40" value="实现了InvocationHandler接口" style="shape=document;whiteSpace=wrap;html=1;boundedLbl=1;fillColor=#f5f5f5;fontColor=#333333;strokeColor=#666666;" parent="1" vertex="1">
          <mxGeometry x="1164" y="441" width="160" height="53" as="geometry" />
        </mxCell>
        <mxCell id="G2Klg-NVRHvDp2kdG9Jy-41" value="代理了mapper接口的对象，最终方法的逻辑会经过&lt;b style=&quot;border-color: var(--border-color);&quot;&gt;MapperProxy&lt;/b&gt;，它实现了&lt;b style=&quot;border-color: var(--border-color);&quot;&gt;InvocationHandler&lt;/b&gt;接口" style="shape=note2;boundedLbl=1;whiteSpace=wrap;html=1;size=10;verticalAlign=top;align=center;fillColor=#f5f5f5;fontColor=#333333;strokeColor=#666666;" parent="1" vertex="1">
          <mxGeometry x="413" y="113" width="160" height="78" as="geometry" />
        </mxCell>
        <mxCell id="G2Klg-NVRHvDp2kdG9Jy-45" style="edgeStyle=orthogonalEdgeStyle;rounded=0;orthogonalLoop=1;jettySize=auto;html=1;exitX=0.5;exitY=1;exitDx=0;exitDy=0;" parent="1" source="G2Klg-NVRHvDp2kdG9Jy-42" target="G2Klg-NVRHvDp2kdG9Jy-6" edge="1">
          <mxGeometry relative="1" as="geometry" />
        </mxCell>
        <mxCell id="G2Klg-NVRHvDp2kdG9Jy-42" value="代理对象&lt;span style=&quot;color: rgb(171, 178, 191); font-family: &amp;quot;Source Code Pro&amp;quot;, &amp;quot;DejaVu Sans Mono&amp;quot;, &amp;quot;Ubuntu Mono&amp;quot;, &amp;quot;Anonymous Pro&amp;quot;, &amp;quot;Droid Sans Mono&amp;quot;, Menlo, Monaco, Consolas, Inconsolata, Courier, monospace, &amp;quot;PingFang SC&amp;quot;, &amp;quot;Microsoft YaHei&amp;quot;, sans-serif; font-size: 14px; font-variant-ligatures: no-common-ligatures; font-weight: 400; text-align: start; background-color: rgb(40, 44, 52);&quot;&gt;&lt;/span&gt;" style="html=1;whiteSpace=wrap;fillColor=#ffe6cc;strokeColor=#d79b00;fontStyle=1" parent="1" vertex="1">
          <mxGeometry x="995" y="312" width="171" height="44" as="geometry" />
        </mxCell>
        <mxCell id="G2Klg-NVRHvDp2kdG9Jy-44" value="代理了SqlSession接口的对象，最终方法的逻辑会经过&lt;b&gt;SqlSessionInterceptor&lt;/b&gt;" style="shape=note2;boundedLbl=1;whiteSpace=wrap;html=1;size=10;verticalAlign=top;align=center;fillColor=#f5f5f5;fontColor=#333333;strokeColor=#666666;" parent="1" vertex="1">
          <mxGeometry x="837" y="296" width="160" height="66" as="geometry" />
        </mxCell>
        <mxCell id="G2Klg-NVRHvDp2kdG9Jy-54" style="edgeStyle=orthogonalEdgeStyle;rounded=0;orthogonalLoop=1;jettySize=auto;html=1;exitX=0.5;exitY=0;exitDx=0;exitDy=0;entryX=0.5;entryY=1;entryDx=0;entryDy=0;" parent="1" source="G2Klg-NVRHvDp2kdG9Jy-47" target="G2Klg-NVRHvDp2kdG9Jy-53" edge="1">
          <mxGeometry relative="1" as="geometry" />
        </mxCell>
        <mxCell id="G2Klg-NVRHvDp2kdG9Jy-55" value="持有引用" style="edgeLabel;html=1;align=center;verticalAlign=middle;resizable=0;points=[];" parent="G2Klg-NVRHvDp2kdG9Jy-54" vertex="1" connectable="0">
          <mxGeometry x="0.0621" y="-4" relative="1" as="geometry">
            <mxPoint x="-6" y="1" as="offset" />
          </mxGeometry>
        </mxCell>
        <mxCell id="G2Klg-NVRHvDp2kdG9Jy-62" style="edgeStyle=orthogonalEdgeStyle;rounded=0;orthogonalLoop=1;jettySize=auto;html=1;exitX=1;exitY=0.5;exitDx=0;exitDy=0;entryX=0;entryY=0.5;entryDx=0;entryDy=0;" parent="1" source="G2Klg-NVRHvDp2kdG9Jy-47" target="G2Klg-NVRHvDp2kdG9Jy-61" edge="1">
          <mxGeometry relative="1" as="geometry" />
        </mxCell>
        <mxCell id="G2Klg-NVRHvDp2kdG9Jy-47" value="SpringManagedTransaction" style="html=1;whiteSpace=wrap;fillColor=#ffe6cc;strokeColor=#d79b00;fontStyle=1" parent="1" vertex="1">
          <mxGeometry x="1363" y="671" width="171" height="37" as="geometry" />
        </mxCell>
        <mxCell id="G2Klg-NVRHvDp2kdG9Jy-53" value="&lt;b&gt;DynamicDataSource&lt;/b&gt;" style="html=1;whiteSpace=wrap;fillColor=#dae8fc;strokeColor=#6c8ebf;" parent="1" vertex="1">
          <mxGeometry x="1389" y="557" width="118" height="42" as="geometry" />
        </mxCell>
        <mxCell id="G2Klg-NVRHvDp2kdG9Jy-60" value="自定义动态数据源实现，重写父类&lt;b style=&quot;border-color: var(--border-color);&quot;&gt;AbstractRoutingDataSource&lt;/b&gt;&lt;span style=&quot;border-color: var(--border-color);&quot;&gt;查找数据源的方法&lt;/span&gt;" style="shape=note2;boundedLbl=1;whiteSpace=wrap;html=1;size=10;verticalAlign=top;align=center;fillColor=#f5f5f5;fontColor=#333333;strokeColor=#666666;" parent="1" vertex="1">
          <mxGeometry x="1507" y="538" width="176" height="72" as="geometry" />
        </mxCell>
        <mxCell id="G2Klg-NVRHvDp2kdG9Jy-64" style="edgeStyle=orthogonalEdgeStyle;rounded=0;orthogonalLoop=1;jettySize=auto;html=1;exitX=0.5;exitY=1;exitDx=0;exitDy=0;" parent="1" source="G2Klg-NVRHvDp2kdG9Jy-61" target="G2Klg-NVRHvDp2kdG9Jy-63" edge="1">
          <mxGeometry relative="1" as="geometry" />
        </mxCell>
        <mxCell id="G2Klg-NVRHvDp2kdG9Jy-65" value="fetchConnection" style="edgeLabel;html=1;align=center;verticalAlign=middle;resizable=0;points=[];" parent="G2Klg-NVRHvDp2kdG9Jy-64" vertex="1" connectable="0">
          <mxGeometry x="-0.0426" y="3" relative="1" as="geometry">
            <mxPoint as="offset" />
          </mxGeometry>
        </mxCell>
        <mxCell id="G2Klg-NVRHvDp2kdG9Jy-61" value="DataSourceUtils" style="html=1;whiteSpace=wrap;fillColor=#ffe6cc;strokeColor=#d79b00;fontStyle=1" parent="1" vertex="1">
          <mxGeometry x="1638" y="671" width="171" height="37" as="geometry" />
        </mxCell>
        <mxCell id="G2Klg-NVRHvDp2kdG9Jy-67" style="edgeStyle=orthogonalEdgeStyle;rounded=0;orthogonalLoop=1;jettySize=auto;html=1;exitX=0.5;exitY=1;exitDx=0;exitDy=0;" parent="1" source="G2Klg-NVRHvDp2kdG9Jy-63" target="G2Klg-NVRHvDp2kdG9Jy-66" edge="1">
          <mxGeometry relative="1" as="geometry" />
        </mxCell>
        <mxCell id="G2Klg-NVRHvDp2kdG9Jy-69" value="determineCurrentLookupKey" style="edgeLabel;html=1;align=center;verticalAlign=middle;resizable=0;points=[];" parent="G2Klg-NVRHvDp2kdG9Jy-67" vertex="1" connectable="0">
          <mxGeometry x="-0.0101" y="-1" relative="1" as="geometry">
            <mxPoint as="offset" />
          </mxGeometry>
        </mxCell>
        <mxCell id="G2Klg-NVRHvDp2kdG9Jy-79" style="edgeStyle=orthogonalEdgeStyle;rounded=0;orthogonalLoop=1;jettySize=auto;html=1;exitX=1;exitY=0.5;exitDx=0;exitDy=0;entryX=0;entryY=0.5;entryDx=0;entryDy=0;" parent="1" source="G2Klg-NVRHvDp2kdG9Jy-63" target="G2Klg-NVRHvDp2kdG9Jy-78" edge="1">
          <mxGeometry relative="1" as="geometry" />
        </mxCell>
        <mxCell id="G2Klg-NVRHvDp2kdG9Jy-80" value="&lt;font style=&quot;font-size: 12px;&quot;&gt;根据返回的数据源名称，从resolvedDataSources中获取数据源对象&lt;/font&gt;" style="edgeLabel;html=1;align=center;verticalAlign=middle;resizable=0;points=[];" parent="G2Klg-NVRHvDp2kdG9Jy-79" vertex="1" connectable="0">
          <mxGeometry x="0.4977" relative="1" as="geometry">
            <mxPoint x="-94" y="-14" as="offset" />
          </mxGeometry>
        </mxCell>
        <mxCell id="G2Klg-NVRHvDp2kdG9Jy-63" value="AbstractRoutingDataSource" style="html=1;whiteSpace=wrap;fillColor=#ffe6cc;strokeColor=#d79b00;fontStyle=1" parent="1" vertex="1">
          <mxGeometry x="1638" y="802" width="171" height="37" as="geometry" />
        </mxCell>
        <mxCell id="G2Klg-NVRHvDp2kdG9Jy-75" style="edgeStyle=orthogonalEdgeStyle;rounded=0;orthogonalLoop=1;jettySize=auto;html=1;exitX=1;exitY=0.5;exitDx=0;exitDy=0;entryX=1;entryY=0.5;entryDx=0;entryDy=0;" parent="1" edge="1">
          <mxGeometry relative="1" as="geometry">
            <mxPoint x="1782.5" y="963.5" as="sourcePoint" />
            <mxPoint x="1809" y="825" as="targetPoint" />
            <Array as="points">
              <mxPoint x="1952" y="963.5" />
              <mxPoint x="1952" y="825.5" />
            </Array>
          </mxGeometry>
        </mxCell>
        <mxCell id="G2Klg-NVRHvDp2kdG9Jy-77" value="返回数据源名称" style="edgeLabel;html=1;align=center;verticalAlign=middle;resizable=0;points=[];" parent="G2Klg-NVRHvDp2kdG9Jy-75" vertex="1" connectable="0">
          <mxGeometry x="0.1375" relative="1" as="geometry">
            <mxPoint y="1" as="offset" />
          </mxGeometry>
        </mxCell>
        <mxCell id="G2Klg-NVRHvDp2kdG9Jy-66" value="&lt;b&gt;DynamicDataSource&lt;/b&gt;" style="html=1;whiteSpace=wrap;fillColor=#dae8fc;strokeColor=#6c8ebf;" parent="1" vertex="1">
          <mxGeometry x="1664.5" y="938" width="118" height="42" as="geometry" />
        </mxCell>
        <mxCell id="G2Klg-NVRHvDp2kdG9Jy-70" value="用于扩展动态数据源实现，它会调用determineCurrentLookupKey方法来获取数据源对象" style="shape=note2;boundedLbl=1;whiteSpace=wrap;html=1;size=10;verticalAlign=top;align=center;fillColor=#f5f5f5;fontColor=#333333;strokeColor=#666666;" parent="1" vertex="1">
          <mxGeometry x="1461" y="785" width="182" height="67" as="geometry" />
        </mxCell>
        <mxCell id="G2Klg-NVRHvDp2kdG9Jy-71" value="&lt;b&gt;DataSourceContextHolder&lt;/b&gt;" style="html=1;whiteSpace=wrap;fillColor=#dae8fc;strokeColor=#6c8ebf;" parent="1" vertex="1">
          <mxGeometry x="1651" y="1117" width="156.5" height="43" as="geometry" />
        </mxCell>
        <mxCell id="G2Klg-NVRHvDp2kdG9Jy-72" style="edgeStyle=orthogonalEdgeStyle;rounded=0;orthogonalLoop=1;jettySize=auto;html=1;exitX=0.5;exitY=1;exitDx=0;exitDy=0;entryX=0.463;entryY=0.023;entryDx=0;entryDy=0;entryPerimeter=0;" parent="1" source="G2Klg-NVRHvDp2kdG9Jy-66" target="G2Klg-NVRHvDp2kdG9Jy-71" edge="1">
          <mxGeometry relative="1" as="geometry" />
        </mxCell>
        <mxCell id="G2Klg-NVRHvDp2kdG9Jy-76" value="&lt;font style=&quot;font-size: 12px;&quot;&gt;获取数据源名称，如果为空返回默认数据源名称&lt;/font&gt;" style="edgeLabel;html=1;align=center;verticalAlign=middle;resizable=0;points=[];" parent="G2Klg-NVRHvDp2kdG9Jy-72" vertex="1" connectable="0">
          <mxGeometry x="-0.3164" y="1" relative="1" as="geometry">
            <mxPoint x="-1" y="15" as="offset" />
          </mxGeometry>
        </mxCell>
        <mxCell id="G2Klg-NVRHvDp2kdG9Jy-73" value="存储当前线程要切换的数据源名称" style="shape=document;whiteSpace=wrap;html=1;boundedLbl=1;fillColor=#f5f5f5;fontColor=#333333;strokeColor=#666666;" parent="1" vertex="1">
          <mxGeometry x="1807.5" y="1113" width="117" height="57" as="geometry" />
        </mxCell>
        <mxCell id="G2Klg-NVRHvDp2kdG9Jy-82" value="" style="edgeStyle=orthogonalEdgeStyle;rounded=0;orthogonalLoop=1;jettySize=auto;html=1;" parent="1" source="G2Klg-NVRHvDp2kdG9Jy-78" target="G2Klg-NVRHvDp2kdG9Jy-81" edge="1">
          <mxGeometry relative="1" as="geometry" />
        </mxCell>
        <mxCell id="G2Klg-NVRHvDp2kdG9Jy-83" value="getConnection" style="edgeLabel;html=1;align=center;verticalAlign=middle;resizable=0;points=[];" parent="G2Klg-NVRHvDp2kdG9Jy-82" vertex="1" connectable="0">
          <mxGeometry x="-0.1724" y="1" relative="1" as="geometry">
            <mxPoint as="offset" />
          </mxGeometry>
        </mxCell>
        <mxCell id="G2Klg-NVRHvDp2kdG9Jy-78" value="DataSource" style="html=1;whiteSpace=wrap;fillColor=#ffe6cc;strokeColor=#d79b00;fontStyle=1" parent="1" vertex="1">
          <mxGeometry x="2205" y="802" width="171" height="37" as="geometry" />
        </mxCell>
        <mxCell id="G2Klg-NVRHvDp2kdG9Jy-81" value="Connection" style="html=1;whiteSpace=wrap;fillColor=#ffe6cc;strokeColor=#d79b00;fontStyle=1" parent="1" vertex="1">
          <mxGeometry x="2205" y="926" width="171" height="37" as="geometry" />
        </mxCell>
        <mxCell id="G2Klg-NVRHvDp2kdG9Jy-84" value="DynamicDataSourceAspect" style="html=1;whiteSpace=wrap;fillColor=#dae8fc;strokeColor=#6c8ebf;" parent="1" vertex="1">
          <mxGeometry x="1649" y="190" width="206" height="48" as="geometry" />
        </mxCell>
        <mxCell id="G2Klg-NVRHvDp2kdG9Jy-95" style="edgeStyle=orthogonalEdgeStyle;rounded=0;orthogonalLoop=1;jettySize=auto;html=1;exitX=0.5;exitY=1;exitDx=0;exitDy=0;entryX=0.5;entryY=0;entryDx=0;entryDy=0;" parent="1" source="G2Klg-NVRHvDp2kdG9Jy-89" target="G2Klg-NVRHvDp2kdG9Jy-90" edge="1">
          <mxGeometry relative="1" as="geometry" />
        </mxCell>
        <mxCell id="G2Klg-NVRHvDp2kdG9Jy-89" value="DynamicDataSourceAspect切面处理" style="rounded=0;whiteSpace=wrap;html=1;fillColor=#dae8fc;strokeColor=#6c8ebf;" parent="1" vertex="1">
          <mxGeometry x="-212" y="324" width="205" height="50" as="geometry" />
        </mxCell>
        <mxCell id="G2Klg-NVRHvDp2kdG9Jy-96" style="edgeStyle=orthogonalEdgeStyle;rounded=0;orthogonalLoop=1;jettySize=auto;html=1;exitX=0.5;exitY=1;exitDx=0;exitDy=0;entryX=0.5;entryY=0;entryDx=0;entryDy=0;" parent="1" source="G2Klg-NVRHvDp2kdG9Jy-90" target="G2Klg-NVRHvDp2kdG9Jy-91" edge="1">
          <mxGeometry relative="1" as="geometry" />
        </mxCell>
        <mxCell id="G2Klg-NVRHvDp2kdG9Jy-90" value="获取数据源注解的数据源名称" style="rounded=0;whiteSpace=wrap;html=1;fillColor=#dae8fc;strokeColor=#6c8ebf;" parent="1" vertex="1">
          <mxGeometry x="-212" y="435" width="205" height="50" as="geometry" />
        </mxCell>
        <mxCell id="G2Klg-NVRHvDp2kdG9Jy-91" value="将数据源名称保存到&lt;b style=&quot;border-color: var(--border-color);&quot;&gt;DataSourceContextHolder中&lt;/b&gt;" style="rounded=0;whiteSpace=wrap;html=1;fillColor=#dae8fc;strokeColor=#6c8ebf;" parent="1" vertex="1">
          <mxGeometry x="-212" y="569" width="205" height="50" as="geometry" />
        </mxCell>
        <mxCell id="G2Klg-NVRHvDp2kdG9Jy-98" style="edgeStyle=orthogonalEdgeStyle;rounded=0;orthogonalLoop=1;jettySize=auto;html=1;" parent="1" source="G2Klg-NVRHvDp2kdG9Jy-92" target="tpEKr861TFxqWMD5nZ4B-20" edge="1">
          <mxGeometry relative="1" as="geometry" />
        </mxCell>
        <mxCell id="G2Klg-NVRHvDp2kdG9Jy-92" value="执行CRUD方法" style="rounded=0;whiteSpace=wrap;html=1;fillColor=#dae8fc;strokeColor=#6c8ebf;" parent="1" vertex="1">
          <mxGeometry x="141" y="190" width="205" height="50" as="geometry" />
        </mxCell>
        <mxCell id="yQC7K4vIfDf4g2h9JSp4-1" value="处理结果集映射Java类型" style="shape=document;whiteSpace=wrap;html=1;boundedLbl=1;fillColor=#f5f5f5;fontColor=#333333;strokeColor=#666666;" vertex="1" parent="1">
          <mxGeometry x="1339" y="945" width="139" height="62" as="geometry" />
        </mxCell>
      </root>
    </mxGraphModel>
  </diagram>
</mxfile>
